<svg xmlns="http://www.w3.org/2000/svg" xmlns:xlink="http://www.w3.org/1999/xlink" width="143" height="50" viewBox="0 0 143 50">
  <defs>
    <clipPath id="clip-Setoo_logo">
      <rect width="143" height="50"/>
    </clipPath>
  </defs>
  <g id="Setoo_logo" clip-path="url(#clip-Setoo_logo)">
    <g id="Group_2094" data-name="Group 2094" transform="translate(7014.854 9737.342)">
      <path id="Path_3150" data-name="Path 3150" d="M243.98,48.863a13.391,13.391,0,0,0-9.9-3.955,14.013,14.013,0,0,0-10.089,3.955,13.685,13.685,0,0,0-4.1,10.314,13.864,13.864,0,0,0,14.192,14.44,17.021,17.021,0,0,0,7.651-1.706,11.454,11.454,0,0,0,5.136-4.948l-5.446-2.947a6.075,6.075,0,0,1-2.76,2.59,9.128,9.128,0,0,1-4.1.946,8.08,8.08,0,0,1-5.136-1.629,6.27,6.27,0,0,1-2.438-4.281h20.87c.077-1.179.124-2,.124-2.482A14.034,14.034,0,0,0,243.98,48.863Zm-17.061,7.91a6.586,6.586,0,0,1,2.375-4.25,7.651,7.651,0,0,1,4.844-1.6,6.862,6.862,0,0,1,4.6,1.566,6.681,6.681,0,0,1,2.252,4.281Z" transform="translate(-7200.716 -9765.284)" fill="#fff"/>
      <path id="Path_3151" data-name="Path 3151" d="M274.613,48.962a13.912,13.912,0,0,0-10.087-3.955,14.086,14.086,0,0,0-10.151,3.955,13.637,13.637,0,0,0-4.1,10.314,13.776,13.776,0,0,0,4.1,10.376,14.175,14.175,0,0,0,10.151,4,14.025,14.025,0,0,0,10.087-4,13.814,13.814,0,0,0,4.165-10.376A13.786,13.786,0,0,0,274.613,48.962ZM269.646,64.58a7.428,7.428,0,0,1-10.274,0,7.365,7.365,0,0,1-2.02-5.3,7.159,7.159,0,1,1,14.315,0A7.173,7.173,0,0,1,269.646,64.58Z" transform="translate(-7183.345 -9765.228)" fill="#fff"/>
      <path id="Path_3152" data-name="Path 3152" d="M226.51,54.06c-1.774-2.14-4.69-3.769-8.7-4.87l-4.982-1.473a8.233,8.233,0,0,1-3.517-1.753h-8.421q1.457,6.1,9.872,8.593l4.982,1.3a9.813,9.813,0,0,1,4.3,2.187,4.2,4.2,0,0,1,1.264,3.366,4.539,4.539,0,0,1-1.928,3.536,7.779,7.779,0,0,1-4.75,1.365,7.4,7.4,0,0,1-4.952-1.644,5.557,5.557,0,0,1-2.021-4.064h-7.513a11.527,11.527,0,0,0,4.042,8.9q3.979,3.606,10.444,3.6a15.712,15.712,0,0,0,9.856-3.071,10.756,10.756,0,0,0,4.335-8.438A10.1,10.1,0,0,0,226.51,54.06Z" transform="translate(-7212 -9764.681)" fill="#fff"/>
      <path id="Path_3153" data-name="Path 3153" d="M207.859,48.4a4.182,4.182,0,0,1,1.7-3.443,6.821,6.821,0,0,1,4.335-1.334,6.4,6.4,0,0,1,4.427,1.442,4.856,4.856,0,0,1,1.6,3.816h7.5a11.2,11.2,0,0,0-3.81-8.856A14.031,14.031,0,0,0,214,36.658a14.306,14.306,0,0,0-9.671,3.366,10.521,10.521,0,0,0-3.934,8.546c0,.109.016.2.016.31h7.481A4.632,4.632,0,0,0,207.859,48.4Z" transform="translate(-7211.859 -9770)" fill="#fd4539"/>
      <path id="Path_3154" data-name="Path 3154" d="M289.163,58.7a7.127,7.127,0,0,1-12.094-3.4h-7.187a13.183,13.183,0,0,0,4,8.453,14.107,14.107,0,0,0,10.15,4.017,13.9,13.9,0,0,0,10.089-4.017,13.276,13.276,0,0,0,4.041-8.453h-7.187A6.748,6.748,0,0,1,289.163,58.7Z" transform="translate(-7172.134 -9759.343)" fill="#fd4539"/>
      <path id="Path_3155" data-name="Path 3155" d="M278.959,54.126a7.431,7.431,0,0,1,10.211,0,6.918,6.918,0,0,1,2.037,4.653h7.1a13.634,13.634,0,0,0-4.135-9.818,13.962,13.962,0,0,0-10.089-3.955,14.134,14.134,0,0,0-10.15,3.955,13.567,13.567,0,0,0-4.088,9.818h7.1A6.733,6.733,0,0,1,278.959,54.126Z" transform="translate(-7172.157 -9765.228)" fill="#fff"/>
      <path id="Path_3156" data-name="Path 3156" d="M253.5,55.055h-6.648V67.37a2.933,2.933,0,0,0,.772,2.249,3.459,3.459,0,0,0,2.237.791,32.547,32.547,0,0,0,3.656-.031v6.173c-5.229.589-9.054.295-11.044-1.473-2.037-1.815-2.438-3.629-2.438-7.693V41.732l6.834-2.311v8.3h6.648Z" transform="translate(-7189.197 -9768.421)" fill="#fff"/>
    </g>
  </g>
</svg>
